<svg width="924" height="176" viewBox="0 0 924 176" fill="none" xmlns="http://www.w3.org/2000/svg">
<path fill-rule="evenodd" clip-rule="evenodd" d="M50.8061 26.2095V124.241C50.8061 127.303 50.9982 127.877 53.8791 128.066L69.6174 129.408V144.533H2.24683V129.411L18.7507 128.069C21.4396 127.877 21.8237 127.111 21.8237 124.241V58.1333C21.8237 55.3892 19.7505 55.8444 5.3224 60.709L0 45.0102L32.9736 26.2095H50.8061ZM114.422 26.8014H125.751C139.374 26.8014 150.7 30.0533 150.7 48.433C150.7 70.0646 136.691 72.935 124.023 72.935H114.422V26.8014ZM128.435 93.4169H114.422V124.049C114.422 127.114 114.617 127.495 117.498 127.877L144.944 129.408V144.531H69.7016V129.408L81.7934 128.066C84.477 127.688 84.8663 127.114 84.8663 124.241V26.4199C84.8663 23.5496 84.4796 22.7813 81.7934 22.5893L69.7016 21.2501V5.93541H134.77C170.283 5.93541 181.027 24.6967 181.027 46.7098C181.027 80.0175 160.877 93.4169 128.435 93.4169ZM235.948 119.266C231.536 122.518 225.009 126.159 218.481 126.159C212.149 126.159 207.542 123.286 207.542 115.627C207.542 107.971 211.573 105.098 222.893 104.335L235.948 103.378V119.266ZM324.185 82.7037C339.347 86.1476 356.432 91.5095 356.432 113.907C356.432 137.259 337.432 146.833 313.053 146.833C297.268 146.833 281.835 143.086 276.452 140.666V144.533H241.131L239.211 134.197L238.25 134.007C230.957 141.09 221.36 146.833 206.003 146.833C181.822 146.833 177.978 130.371 177.978 118.498C177.978 99.3576 189.883 90.5518 213.875 89.0206L235.948 87.4894V76.9603C235.948 67.9625 234.991 61.8377 223.086 61.8377C213.877 61.8377 209.076 63.1768 209.076 74.6635L182.009 72.3641C182.009 46.523 205.621 42.8817 223.28 42.8817C252.457 42.8817 264.165 50.7351 264.165 77.5339V124.052C264.165 127.114 264.357 127.498 267.235 127.88L275.047 129.177V112.181L295.584 113.715L297.504 124.625C297.694 126.348 298.083 127.114 299.809 127.495C302.111 128.264 307.294 129.411 314.59 129.411C324.761 129.411 330.517 126.543 330.517 119.458C330.517 111.802 322.84 109.502 313.053 107.779C296.931 104.909 275.815 101.465 275.815 76.3868C275.815 52.6478 296.16 42.8817 318.234 42.8817C333.396 42.8817 348.176 46.3309 353.554 48.433V76.1921L333.014 74.8556L331.094 64.8975C330.904 63.3663 330.517 62.6033 329.178 62.2192C326.682 61.4562 322.075 60.688 316.892 60.688C307.294 60.688 301.919 64.3239 301.919 70.4488C301.919 78.2995 312.477 80.0201 324.185 82.7037ZM882.005 116.011C876.822 120.416 869.719 124.244 863.194 124.244C851.097 124.244 845.727 113.904 845.727 95.3375C845.727 78.2995 851.292 65.0895 865.499 65.0895C871.061 65.0895 877.206 67.5784 882.005 70.8355V116.011ZM913.866 128.072L923.077 129.413V144.536H887.375L885.46 133.815L884.115 133.62C876.054 141.471 866.648 146.83 852.636 146.83C829.989 146.83 815.4 132.473 815.4 95.911C815.4 57.4335 834.782 42.8844 856.09 42.8844C867.225 42.8844 875.859 46.7124 883.158 52.0743V22.9734C883.158 21.0581 882.387 19.7189 880.661 19.1454L870.103 15.5068L872.213 0H910.796V124.43C910.796 127.303 910.988 127.69 913.866 128.072ZM590.636 61.643C587.953 62.0245 586.8 62.9848 586.032 65.471L562.425 144.531H532.092L517.122 80.4069H515.973L500.808 144.533H466.256L442.069 65.2842C441.306 62.9848 440.341 62.6007 438.039 62.0271L436.171 61.6298V76.1921L415.634 74.8556L413.713 64.8975C413.524 63.3663 413.137 62.6033 411.798 62.2192C409.298 61.4562 404.694 60.688 399.511 60.688C389.914 60.688 384.536 64.3239 384.536 70.4488C384.536 78.2995 395.097 80.0254 406.804 82.7037C421.966 86.1476 439.052 91.5095 439.052 113.907C439.052 137.262 420.051 146.833 395.67 146.833C378.203 146.833 361.121 142.237 357.664 139.94V112.183L378.203 113.715L380.124 124.625C380.313 126.348 380.703 127.114 382.429 127.495C384.731 128.264 389.914 129.411 397.209 129.411C407.378 129.411 413.137 126.543 413.137 119.458C413.137 111.802 405.46 109.502 395.67 107.779C379.548 104.909 358.434 101.465 358.434 76.3868C358.434 52.6478 378.779 42.8817 400.853 42.8817C413.39 42.8817 425.652 45.2391 432.566 47.2465L433.051 44.7997H481.613V60.688L470.862 61.8377L486.219 115.627H487.564L504.644 47.2859H533.632L550.141 115.627H551.29L565.687 61.8377L554.745 60.688L557.236 44.7997H597.55V50.4431C595.154 53.962 593.046 57.6688 591.247 61.5272L590.636 61.643ZM789.115 66.4287C784.126 66.4287 778.178 70.6382 775.297 73.1297V123.857C775.297 126.919 775.492 127.493 778.372 127.688L797.37 129.216V144.533H734.601V129.027L743.244 127.877C745.928 127.493 746.312 126.919 746.312 124.049V67.9573C746.312 65.8525 745.736 64.5134 743.82 63.9398L734.586 60.7037C734.288 60.0776 733.962 59.4725 733.649 58.8621L735.567 44.7971H769.348L771.65 60.1092H772.803C779.135 50.3484 787.583 42.8817 799.867 42.8817C804.279 42.8817 813.109 43.6473 816.566 44.605V79.4466L793.535 78.681L791.614 68.5334C791.23 66.8102 790.654 66.4287 789.115 66.4287Z" fill="#4E5F89"/>
<path fill-rule="evenodd" clip-rule="evenodd" d="M662.614 30.3401C697.487 30.3401 725.756 58.6096 725.756 93.4827C725.756 128.356 697.487 156.625 662.614 156.625C627.74 156.625 599.471 128.356 599.471 93.4827C599.471 58.6096 627.74 30.3401 662.614 30.3401Z" fill="#198CFF"/>
<path fill-rule="evenodd" clip-rule="evenodd" d="M583.685 93.4827C583.685 49.8906 619.021 14.5544 662.614 14.5544C706.206 14.5544 741.542 49.8906 741.542 93.4827C741.542 137.077 706.206 172.411 662.614 172.411C619.021 172.411 583.685 137.077 583.685 93.4827ZM599.471 93.4827C599.471 128.356 627.74 156.625 662.614 156.625C697.487 156.625 725.756 128.356 725.756 93.4827C725.756 58.6096 697.487 30.3401 662.614 30.3401C627.74 30.3401 599.471 58.6096 599.471 93.4827Z" fill="white"/>
<path opacity="0.5" d="M581.054 93.4827C581.054 138.527 617.572 175.042 662.614 175.042C707.655 175.042 744.173 138.527 744.173 93.4827C744.173 48.441 707.655 11.9235 662.614 11.9235C617.572 11.9235 581.054 48.441 581.054 93.4827ZM583.685 93.4827C583.685 49.8959 619.019 14.5544 662.614 14.5544C706.208 14.5544 741.542 49.8959 741.542 93.4827C741.542 137.07 706.208 172.411 662.614 172.411C619.019 172.411 583.685 137.07 583.685 93.4827ZM602.102 93.4774C602.102 126.896 629.195 153.984 662.614 153.984C696.032 153.984 723.125 126.896 723.125 93.4774C723.125 60.0618 696.032 32.971 662.614 32.971C629.195 32.971 602.102 60.0618 602.102 93.4774ZM599.471 93.4827C599.471 58.6148 627.738 30.3401 662.614 30.3401C697.489 30.3401 725.756 58.6148 725.756 93.4827C725.756 128.351 697.492 156.625 662.614 156.625C627.735 156.625 599.471 128.351 599.471 93.4827Z" fill="black"/>
<path fill-rule="evenodd" clip-rule="evenodd" d="M689.765 159.461C713.783 149.224 730.618 125.451 730.618 97.75C730.618 60.7011 700.504 30.6663 663.358 30.6663C626.212 30.6663 596.101 60.7011 596.101 97.75C596.101 134.688 626.035 164.647 663.032 164.823C662.916 164.826 662.806 164.834 662.692 164.834C623.707 164.834 592.104 133.312 592.104 94.4298C592.104 55.5471 623.707 24.0258 662.692 24.0258C701.678 24.0258 733.281 55.5471 733.281 94.4298C733.281 123.746 715.311 148.867 689.765 159.461ZM661.33 165.623C704.88 165.623 740.182 130.413 740.182 86.9816C740.182 82.9299 739.874 78.952 739.282 75.0661C740.747 81.0593 741.542 87.3157 741.542 93.7589C741.542 137.196 706.237 172.4 662.69 172.4C623.199 172.4 590.494 143.452 584.738 105.674C593.151 140.079 624.241 165.623 661.33 165.623Z" fill="black" fill-opacity="0.1"/>
<path fill-rule="evenodd" clip-rule="evenodd" d="M662.614 46.1257C688.768 46.1257 709.971 67.3285 709.971 93.4827C709.971 119.637 688.768 140.84 662.614 140.84C636.459 140.84 615.257 119.637 615.257 93.4827C615.257 67.3285 636.459 46.1257 662.614 46.1257Z" fill="#F2F2F2"/>
<path d="M662.614 46.1257C636.459 46.1257 615.257 67.3285 615.257 93.4827C615.257 119.637 636.459 140.84 662.614 140.84C688.768 140.84 709.971 119.637 709.971 93.4827C709.971 67.3285 688.768 46.1257 662.614 46.1257ZM662.614 43.4948C690.22 43.4948 712.601 65.8762 712.601 93.4827C712.601 121.092 690.22 143.471 662.614 143.471C635.007 143.471 612.626 121.092 612.626 93.4827C612.626 65.8762 635.007 43.4948 662.614 43.4948Z" fill="black" fill-opacity="0.25"/>
<path fill-rule="evenodd" clip-rule="evenodd" d="M683.661 93.4827C683.661 99.0649 681.444 104.418 677.496 108.366C673.549 112.313 668.196 114.53 662.613 114.53C657.031 114.53 651.678 112.313 647.731 108.366C643.783 104.418 641.566 99.0649 641.566 93.4827C641.566 87.9006 643.783 82.547 647.731 78.5999C651.678 74.6527 657.031 72.4352 662.613 72.4352C668.196 72.4352 673.549 74.6527 677.496 78.5999C681.444 82.547 683.661 87.9006 683.661 93.4827Z" fill="black" fill-opacity="0.05"/>
<path d="M681.03 93.4827C681.03 88.5983 679.09 83.914 675.636 80.4602C672.182 77.0064 667.498 75.0661 662.613 75.0661C657.729 75.0661 653.045 77.0064 649.591 80.4602C646.137 83.914 644.197 88.5983 644.197 93.4827C644.197 98.3671 646.137 103.051 649.591 106.505C653.045 109.959 657.729 111.899 662.613 111.899C667.498 111.899 672.182 109.959 675.636 106.505C679.09 103.051 681.03 98.3671 681.03 93.4827ZM683.661 93.4827C683.661 99.0649 681.444 104.418 677.496 108.366C673.549 112.313 668.196 114.53 662.613 114.53C657.031 114.53 651.678 112.313 647.731 108.366C643.783 104.418 641.566 99.0649 641.566 93.4827C641.566 87.9006 643.783 82.547 647.731 78.5999C651.678 74.6527 657.031 72.4352 662.613 72.4352C668.196 72.4352 673.549 74.6527 677.496 78.5999C681.444 82.547 683.661 87.9006 683.661 93.4827Z" fill="black" fill-opacity="0.15"/>
<path d="M683.661 93.4827C683.661 87.9005 681.444 82.547 677.496 78.5998C673.549 74.6526 668.196 72.4351 662.614 72.4351C657.031 72.4351 651.678 74.6526 647.731 78.5998C643.783 82.547 641.566 87.9005 641.566 93.4827C641.566 99.0648 643.783 104.418 647.731 108.366C651.678 112.313 657.031 114.53 662.614 114.53C668.196 114.53 673.549 112.313 677.496 108.366C681.444 104.418 683.661 99.0648 683.661 93.4827ZM686.292 93.4827C686.292 99.7626 683.797 105.785 679.357 110.226C674.916 114.666 668.893 117.161 662.614 117.161C656.334 117.161 650.311 114.666 645.87 110.226C641.43 105.785 638.935 99.7626 638.935 93.4827C638.935 87.2028 641.43 81.18 645.87 76.7395C650.311 72.2989 656.334 69.8042 662.614 69.8042C668.893 69.8042 674.916 72.2989 679.357 76.7395C683.797 81.18 686.292 87.2028 686.292 93.4827Z" fill="white"/>
<path fill-rule="evenodd" clip-rule="evenodd" d="M652.09 83.9008V61.9114H673.137V98.5604L667.876 103.443L673.137 108.326V130.316H652.09V93.6695L657.352 88.7838L652.09 83.9008Z" fill="white"/>
<path fill-rule="evenodd" clip-rule="evenodd" d="M652.09 81.2698V59.2804H673.137V95.9294L667.876 100.812L673.137 105.695V127.685H652.09V91.0385L657.352 86.1528L652.09 81.2698Z" fill="#4D4D4D"/>
<path fill-rule="evenodd" clip-rule="evenodd" d="M654.721 83.5246V64.5424H670.506V97.0556L666.56 101.562V104.214L670.506 109.237V127.685H654.721V95.1139L658.667 90.7018V88.034L654.721 83.5246Z" fill="#808080"/>
</svg>
