<svg width="924" height="279" viewBox="0 0 924 279" fill="none" xmlns="http://www.w3.org/2000/svg">
<path fill-rule="evenodd" clip-rule="evenodd" d="M572.658 217.54C519.018 257.078 441.268 278.173 374.326 278.173C280.463 278.173 195.963 243.456 132.034 185.717C127.013 181.175 131.513 174.988 137.539 178.524C206.53 218.665 291.834 242.814 379.951 242.814C439.379 242.814 504.753 230.518 564.864 205.003C573.944 201.146 581.538 210.95 572.658 217.54Z" fill="#FF9900"/>
<path fill-rule="evenodd" clip-rule="evenodd" d="M594.96 192.025C588.129 183.265 549.635 187.886 532.357 189.935C527.094 190.578 526.291 185.997 531.032 182.703C561.69 161.126 611.996 167.354 617.863 174.586C623.729 181.859 616.336 232.286 587.526 256.354C583.106 260.051 578.887 258.082 580.856 253.18C587.325 237.028 601.831 200.825 594.96 192.025Z" fill="#FF9900"/>
<path fill-rule="evenodd" clip-rule="evenodd" d="M533.562 30.3766V9.40246C533.562 6.228 535.974 4.09846 538.866 4.09846H632.769C635.783 4.09846 638.194 6.26769 638.194 9.40246V27.3628C638.154 30.3766 635.622 34.3145 631.122 40.5425L582.463 110.015C600.545 109.574 619.63 112.266 636.024 121.507C639.721 123.596 640.725 126.651 641.007 129.664V152.045C641.007 155.098 637.631 158.674 634.096 156.826C605.205 141.678 566.833 140.031 534.889 156.987C531.634 158.755 528.219 155.219 528.219 152.166V130.91C528.219 127.494 528.258 121.668 531.674 116.485L588.048 35.6409H538.986C535.974 35.6409 533.562 33.5114 533.562 30.3766ZM191.021 161.246H162.451C159.719 161.046 157.55 158.996 157.349 156.384V9.76431C157.349 6.83077 159.799 4.5 162.853 4.5H189.493C192.266 4.62 194.476 6.75046 194.677 9.40154V28.5692H195.199C202.15 10.0458 215.209 1.40769 232.808 1.40769C250.688 1.40769 261.859 10.0458 269.896 28.5692C276.807 10.0458 292.518 1.40769 309.354 1.40769C321.327 1.40769 334.426 6.34985 342.422 17.4397C351.462 29.7748 349.614 47.6954 349.614 63.4062L349.574 155.943C349.574 158.876 347.123 161.247 344.07 161.247H315.541C312.689 161.046 310.398 158.756 310.398 155.943V78.2326C310.398 72.0443 310.961 56.6142 309.594 50.7489C307.465 40.9043 301.076 38.1314 292.798 38.1314C285.887 38.1314 278.655 42.7523 275.721 50.1462C272.789 57.54 273.07 69.9148 273.07 78.2326V155.942C273.07 158.875 270.618 161.246 267.565 161.246H239.036C236.143 161.046 233.893 158.755 233.893 155.942L233.853 78.2326C233.853 61.8785 236.545 37.8111 216.254 37.8111C195.722 37.8111 196.525 61.2757 196.525 78.2326V155.942C196.525 158.875 194.074 161.246 191.021 161.246ZM719.038 1.40677C761.429 1.40677 784.373 37.8102 784.373 84.0988C784.373 128.82 759.018 164.3 719.037 164.3C677.41 164.3 654.749 127.896 654.749 82.5314C654.749 36.8861 677.692 1.40677 719.038 1.40677ZM719.279 31.3412C698.224 31.3412 696.898 60.0305 696.898 77.9105C696.898 95.832 696.618 134.083 719.038 134.083C741.178 134.083 742.222 103.225 742.222 84.42C742.222 72.0443 741.7 57.2575 737.963 45.5252C734.749 35.3188 728.359 31.3412 719.279 31.3412ZM839.34 161.246H810.892C808.039 161.046 805.748 158.755 805.748 155.942L805.709 9.28154C805.949 6.58985 808.321 4.5 811.213 4.5H837.692C840.184 4.62 842.233 6.30923 842.795 8.59846V31.02H843.318C851.314 10.9698 862.524 1.40677 882.253 1.40677C895.071 1.40677 907.567 6.02677 915.604 18.684C923.077 30.4163 923.077 50.1462 923.077 64.3302V156.625C922.756 159.197 920.385 161.246 917.573 161.246H888.923C886.311 161.046 884.142 159.116 883.86 156.625V76.9865C883.86 60.9545 885.709 37.488 865.98 37.488C859.029 37.488 852.64 42.1495 849.466 49.2212C845.447 58.1825 844.925 67.1022 844.925 76.9874V155.942C844.885 158.875 842.394 161.246 839.34 161.246ZM458.706 91.2111C458.706 102.341 458.987 111.623 453.361 121.506C448.821 129.544 441.589 134.485 433.592 134.485C422.623 134.485 416.194 126.128 416.194 113.792C416.194 89.4425 438.013 85.0228 458.706 85.0228V91.2111ZM487.515 160.844C485.627 162.532 482.895 162.653 480.765 161.527C471.282 153.652 469.554 149.995 464.371 142.482C448.7 158.474 437.571 163.255 417.279 163.255C393.21 163.255 374.526 148.428 374.526 118.735C374.526 95.5505 387.063 79.7594 404.983 72.0443C420.494 65.2135 442.151 64.008 458.706 62.1194V58.4234C458.706 51.6323 459.228 43.596 455.21 37.7298C451.755 32.4665 445.084 30.2963 439.178 30.2963C428.288 30.2963 418.605 35.8809 416.235 47.4535C415.752 50.0252 413.863 52.5563 411.252 52.6772L383.567 49.704C381.237 49.1815 378.625 47.2929 379.308 43.7169C385.657 10.1262 416.034 0 443.197 0C457.099 0 475.261 3.69692 486.231 14.2246C500.132 27.2031 498.807 44.52 498.807 63.3655V107.886C498.807 121.266 504.353 127.132 509.575 134.365C511.385 136.937 511.785 140.031 509.455 141.959C503.629 146.821 493.262 155.862 487.556 160.925L487.517 160.844M84.1791 91.2111C84.1791 102.341 84.4606 111.623 78.8345 121.506C74.2948 129.544 67.1022 134.485 59.0658 134.485C48.0969 134.485 41.7074 126.128 41.7074 113.792C41.7074 89.4425 63.5262 85.0228 84.1791 85.0228V91.2111ZM112.988 160.844C111.101 162.532 108.368 162.653 106.239 161.527C96.756 153.652 95.0677 149.995 89.8449 142.482C74.1738 158.474 63.0849 163.255 42.7523 163.255C18.7246 163.255 0 148.428 0 118.735C0 95.5505 12.5769 79.7594 30.4569 72.0443C45.9674 65.2135 67.6246 64.008 84.1791 62.1194V58.4234C84.1791 51.6323 84.7015 43.596 80.7231 37.7298C77.2274 32.4665 70.5582 30.2963 64.6911 30.2963C53.8025 30.2963 44.0788 35.8809 41.7074 47.4535C41.2255 50.0252 39.3369 52.5563 36.7652 52.6772L9.04062 49.704C6.70985 49.1815 4.13908 47.2929 4.78154 43.7169C11.1702 10.1262 41.5071 0 68.6695 0C82.5711 0 100.734 3.69692 111.703 14.2246C125.605 27.2031 124.279 44.52 124.279 63.3655V107.886C124.279 121.266 129.824 127.132 135.048 134.365C136.897 136.937 137.298 140.031 134.968 141.959C129.141 146.821 118.775 155.862 113.07 160.925L112.988 160.844Z" fill="black"/>
</svg>
