<svg width="924" height="262" viewBox="0 0 924 262" fill="none" xmlns="http://www.w3.org/2000/svg">
<path d="M47.5308 0.907589C28.6308 8.81734 7.84834 31.1371 1.28873 59.2106C-7.03365 94.7489 27.5666 109.757 30.3941 104.861C33.7201 99.0533 24.1738 97.1039 22.2244 78.6764C19.7167 54.8469 30.7663 28.2233 44.7103 16.541C47.3113 14.4055 47.185 17.4191 47.185 22.9744C47.185 32.9931 46.6262 122.63 46.6262 141.344C46.6262 166.677 45.5884 174.653 43.6725 182.53C41.79 190.54 38.7429 195.941 41.0381 198.044C43.6391 200.365 54.6892 194.837 61.0956 185.896C68.7594 175.185 71.4601 162.312 71.9591 148.342C72.5249 131.518 72.4915 104.768 72.5249 89.5399C72.5249 75.5361 72.7444 34.5963 72.3054 9.94845C72.1786 3.92121 55.4141 -2.39192 47.5308 0.907589ZM918.906 133.899C916.205 133.899 914.921 136.726 913.883 141.47C910.304 158.015 906.539 161.747 901.669 161.747C896.241 161.747 891.371 153.558 890.087 137.166C889.116 124.293 889.269 100.557 890.526 76.9466C890.779 72.1103 889.455 67.3135 876.456 62.5705C870.841 60.5613 862.705 57.5476 858.66 67.3404C847.198 94.942 842.741 116.915 841.669 125.803C841.644 126.269 841.078 126.335 840.978 125.271C840.326 118.139 838.815 105.173 838.629 77.918C838.563 72.6492 837.465 68.0918 831.564 64.3867C827.766 62.0047 816.21 57.7338 812.032 62.79C808.453 66.9343 804.282 78.0507 799.918 91.2363C796.399 101.974 793.95 109.258 793.95 109.258C793.95 109.258 793.975 80.306 794.044 69.3162C794.044 65.1715 791.217 63.7944 790.371 63.5415C786.507 62.4109 778.876 60.5613 775.676 60.5613C771.691 60.5613 770.746 62.79 770.746 66.0232C770.746 66.4288 770.088 104.103 770.088 130.447V134.152C767.919 146.273 760.768 162.725 753.011 162.725C745.254 162.725 741.582 155.846 741.582 124.452C741.582 106.145 742.147 98.1751 742.4 84.9232C742.553 77.2923 742.866 71.4248 742.839 70.0746C742.773 66.0232 735.707 63.9476 732.441 63.1957C729.148 62.4108 726.287 62.1579 724.032 62.2512C720.892 62.4438 718.663 64.5129 718.663 67.4068V71.7975C714.612 65.3975 708.046 60.934 703.655 59.6497C691.913 56.1641 679.633 59.2705 670.373 72.2031C663.028 82.5083 658.597 94.1502 656.874 110.888C655.584 123.135 655.996 135.536 658.285 146.02C655.524 157.855 650.435 162.725 644.879 162.725C636.777 162.725 630.942 149.533 631.601 126.708C632.074 111.706 635.054 101.189 638.347 85.9276C639.764 79.4278 638.6 76.042 635.746 72.742C633.138 69.7882 627.55 68.2515 619.547 70.1011C613.859 71.4517 605.669 72.8952 598.225 73.9993C598.225 73.9993 598.664 72.2031 599.044 69.0368C600.959 52.425 582.904 53.7756 577.156 59.0844C573.704 62.2512 571.349 65.9898 570.471 72.709C569.06 83.3864 577.755 88.4088 577.755 88.4088C574.901 101.468 567.929 118.545 560.678 130.886C556.813 137.512 553.859 142.382 550.034 147.59C549.999 145.675 549.999 143.725 549.999 141.816C549.932 114.341 550.278 92.7132 550.438 84.9232C550.598 77.2923 550.91 71.5779 550.91 70.2273C550.844 67.2736 549.121 66.116 545.475 64.7324C542.275 63.4816 538.477 62.5705 534.552 62.2512C529.622 61.8785 526.608 64.5129 526.702 67.6198V71.7975C522.624 65.3975 516.058 60.934 511.727 59.6497C499.952 56.1641 487.678 59.2705 478.417 72.2031C471.099 82.5083 466.263 96.9178 464.879 110.729C463.629 123.668 463.848 134.591 465.605 143.825C463.722 153.052 458.353 162.725 452.266 162.725C444.509 162.725 440.079 155.846 440.079 124.452C440.079 106.145 440.644 98.1751 440.93 84.9232C441.083 77.2923 441.369 71.4248 441.336 70.0746C441.303 66.0232 434.244 63.9476 430.944 63.1957C427.525 62.3839 424.538 62.1315 422.276 62.2512C419.263 62.5037 417.16 65.1715 417.16 67.2137V71.7975C413.082 65.3975 406.516 60.934 402.152 59.6497C390.41 56.1641 378.23 59.3374 368.902 72.2031C362.815 80.5924 357.886 89.9126 355.345 110.575C354.653 116.543 354.307 122.124 354.34 127.34C351.918 142.155 341.214 159.239 332.486 159.239C327.337 159.239 322.441 149.313 322.441 128.125C322.441 99.9314 324.197 59.743 324.51 55.8512C324.51 55.8512 335.56 55.6582 337.728 55.6317C343.224 55.5983 348.246 55.725 355.564 55.3458C359.27 55.1592 362.815 41.9407 358.983 40.2777C357.287 39.5522 345.106 38.8937 340.27 38.8009C336.192 38.7075 324.915 37.8628 324.915 37.8628C324.915 37.8628 325.927 11.2058 326.146 8.41169C326.332 6.02325 323.319 4.83278 321.563 4.10731C317.319 2.29116 313.52 1.43996 309.063 0.528391C302.816 -0.755391 300.022 0.50194 299.489 5.73735C298.671 13.687 298.232 36.9847 298.232 36.9847C293.649 36.9847 278.108 36.0666 273.551 36.0666C269.32 36.0666 264.73 54.2811 270.604 54.5006C277.356 54.7536 289.065 55.0065 296.848 55.2191C296.848 55.2191 296.503 96.0726 296.503 108.659V112.551C292.205 134.87 277.164 146.932 277.164 146.932C280.397 132.143 273.804 121.06 261.876 111.706C257.478 108.22 248.817 101.654 239.111 94.5294C239.111 94.5294 244.732 88.9746 249.722 77.8581C253.241 69.9748 253.4 60.907 244.732 58.9247C230.416 55.6317 218.641 66.1494 215.095 77.3856C212.394 86.0538 213.811 92.5201 219.173 99.2059L220.397 100.716C217.197 106.93 212.74 115.312 209.001 121.812C198.55 139.867 190.667 154.123 184.732 154.123C179.962 154.123 180.022 139.647 180.022 126.083C180.022 114.401 180.9 96.7911 181.592 78.5831C181.812 72.5823 178.798 69.1296 173.749 66.0232C170.669 64.1402 164.136 60.435 160.337 60.435C154.689 60.435 138.298 61.1864 122.823 105.925C120.875 111.58 117.043 121.845 117.043 121.845L117.388 68.032C117.388 66.7746 116.73 65.5841 115.193 64.7324C112.585 63.3219 105.587 60.435 99.4329 60.435C96.4462 60.435 94.9694 61.8186 94.9694 64.5463L94.4704 148.688C94.4704 155.095 94.6231 162.565 95.2553 165.832C95.8804 169.098 96.9182 171.766 98.1756 173.362C99.4329 174.906 100.903 176.097 103.292 176.629C105.52 177.101 117.794 178.638 118.426 173.961C119.211 168.34 119.238 162.286 125.677 139.587C135.723 104.295 148.788 87.0916 154.942 80.9646C156.04 79.9003 157.264 79.834 157.198 81.5967C156.918 89.3468 156.007 108.659 155.381 125.078C153.718 169.065 161.688 177.194 173.15 177.194C181.878 177.194 194.186 168.499 207.404 146.526C215.66 132.802 223.637 119.397 229.411 109.697C233.369 113.396 237.887 117.387 242.377 121.658C252.835 131.544 256.254 140.965 253.966 149.886C252.236 156.724 245.677 163.756 234.028 156.917C230.635 154.935 229.192 153.398 225.772 151.136C223.949 149.912 221.122 149.566 219.459 150.824C215.062 154.123 212.58 158.294 211.136 163.477C209.786 168.533 214.842 171.167 220.084 173.489C224.575 175.531 234.247 177.321 240.428 177.54C264.51 178.358 283.79 165.925 297.194 133.899C299.616 161.561 309.814 177.228 327.557 177.228C339.452 177.228 351.353 161.873 356.568 146.772C358.039 152.926 360.268 158.261 363.128 162.818C376.819 184.479 403.376 179.835 416.688 161.434C420.832 155.72 421.465 153.678 421.465 153.678C423.407 171.047 437.411 177.161 445.42 177.161C454.428 177.161 463.662 172.897 470.155 158.261C470.94 159.864 471.758 161.374 472.703 162.818C486.361 184.479 512.917 179.835 526.263 161.434C526.861 160.523 527.427 159.771 527.893 159.046L528.305 170.475C528.305 170.475 520.674 177.447 515.998 181.745C495.435 200.618 479.795 214.934 478.637 231.573C477.194 252.828 494.397 260.711 507.456 261.742C521.273 262.846 533.142 255.216 540.42 244.478C546.826 235.058 551.037 214.808 550.724 194.777C550.598 186.741 550.405 176.569 550.219 165.612C557.47 157.263 565.633 146.645 573.11 134.219C581.3 120.714 590.028 102.532 594.485 88.3759C594.485 88.3759 602.116 88.4422 610.218 87.9368C612.826 87.7771 613.578 88.316 613.072 90.1985C612.507 92.4872 602.84 129.821 611.662 154.688C617.722 171.699 631.314 177.194 639.417 177.194C648.863 177.194 657.911 170.036 662.741 159.425C663.339 160.589 663.938 161.747 664.63 162.818C678.288 184.479 704.752 179.802 718.19 161.434C721.237 157.263 722.933 153.678 722.933 153.678C725.82 171.673 739.824 177.228 747.827 177.228C756.209 177.228 764.119 173.808 770.559 158.607C770.812 165.299 771.218 170.761 771.91 172.484C772.315 173.556 774.704 174.873 776.4 175.531C784.057 178.358 791.847 177.008 794.701 176.409C796.71 176.003 798.28 174.434 798.473 170.289C799.032 159.425 798.686 141.184 801.986 127.593C807.541 104.861 812.69 96.0396 815.138 91.6754C816.495 89.2206 818.058 88.815 818.092 91.3895C818.185 96.6314 818.471 112.019 820.633 132.742C822.176 147.936 824.279 156.944 825.908 159.805C830.492 167.934 836.206 168.313 840.824 168.313C843.777 168.313 849.931 167.495 849.392 162.312C849.113 159.805 849.585 144.198 855.014 121.785C858.592 107.123 864.526 93.9042 866.662 89.0674C867.48 87.2782 867.826 88.6618 867.826 88.9412C867.354 99.0198 866.35 132.016 870.427 150.038C876.022 174.5 892.122 177.228 897.743 177.228C909.704 177.228 919.537 168.12 922.83 144.138C923.648 138.357 922.452 133.899 918.906 133.899ZM416.908 119.084C416.249 131.764 413.768 142.382 409.816 150.072C402.591 164.042 388.375 168.439 382.121 148.315C377.571 133.78 379.108 113.935 381.024 103.224C383.784 87.3381 390.789 76.1019 401.713 77.1327C412.89 78.2373 418.351 92.6468 416.908 119.084ZM526.45 119.27C525.825 131.232 522.718 143.286 519.325 150.072C512.327 164.135 497.691 168.533 491.63 148.315C487.493 134.465 488.464 116.603 490.533 105.36C493.207 90.7309 499.64 77.1327 511.229 77.1327C522.499 77.1327 528.053 89.5065 526.45 119.27ZM529.311 201.024C529.151 222.911 525.732 242.063 518.381 247.652C507.896 255.562 493.799 249.595 496.72 233.648C499.294 219.518 511.508 205.109 529.344 187.493C529.344 187.493 529.405 191.51 529.311 201.024ZM718.444 119.397C717.812 132.555 714.891 142.821 711.285 150.072C704.28 164.135 689.778 168.499 683.591 148.315C680.231 137.292 680.072 118.891 682.493 103.544C684.941 87.9034 691.82 76.1019 703.183 77.1327C714.419 78.2039 719.668 92.6468 718.444 119.397Z" fill="url(#paint0_linear_107_11)"/>
<defs>
<linearGradient id="paint0_linear_107_11" x1="-34.243" y1="168.114" x2="76.469" y2="55.0267" gradientUnits="userSpaceOnUse">
<stop stop-color="#FFD521"/>
<stop offset="0.05" stop-color="#FFD521"/>
<stop offset="0.501119" stop-color="#F50000"/>
<stop offset="0.95" stop-color="#B900B4"/>
<stop offset="0.950079" stop-color="#B900B4"/>
<stop offset="1" stop-color="#B900B4"/>
</linearGradient>
</defs>
</svg>
