<svg width="924" height="198" viewBox="0 0 924 198" fill="none" xmlns="http://www.w3.org/2000/svg">
<path d="M325.882 113.57L320.379 129.16H319.921C319.004 125.645 317.322 120.295 314.571 113.875L285.07 39.7417H256.181V157.897H275.288V84.9861C275.288 80.4005 275.288 75.2035 275.135 68.7837C274.982 65.5738 274.676 63.1281 274.523 61.2939H274.982C275.899 65.8795 276.969 69.2422 277.733 71.3822L313.195 157.591H326.646L361.802 70.6179C362.567 68.6308 363.331 64.6567 364.095 61.2939H364.554C364.095 70.0065 363.789 77.802 363.637 82.5404V157.438H383.966V39.436H356.147L325.882 113.57ZM403.225 72.7578H423.096V157.438H403.225V72.7578ZM413.314 36.9903C409.951 36.9903 407.2 38.2132 404.907 40.3531C402.614 42.493 401.391 45.2444 401.391 48.6071C401.391 51.817 402.614 54.5684 404.907 56.7083C407.2 58.8483 409.951 59.9182 413.314 59.9182C416.676 59.9182 419.581 58.6954 421.721 56.7083C424.013 54.5684 425.236 51.817 425.236 48.6071C425.236 45.3972 424.013 42.6459 421.721 40.3531C419.733 38.2132 416.829 36.9903 413.314 36.9903ZM493.561 71.9936C489.893 71.2293 486.071 70.7708 482.403 70.7708C473.385 70.7708 465.131 72.7579 458.252 76.732C451.374 80.7062 445.871 86.2089 442.356 93.0873C438.687 100.118 436.853 108.22 436.853 117.544C436.853 125.645 438.687 132.829 442.203 139.402C445.718 145.821 450.61 151.018 457.182 154.534C463.449 158.05 470.786 159.884 479.04 159.884C488.517 159.884 496.618 157.897 503.038 154.228L503.191 154.075V135.733L502.427 136.345C499.523 138.484 496.16 140.319 492.797 141.389C489.281 142.611 486.071 143.223 483.32 143.223C475.372 143.223 469.105 140.93 464.672 135.886C460.087 130.995 457.794 124.269 457.794 115.862C457.794 107.15 460.087 100.271 464.825 95.2272C469.563 90.183 475.83 87.5845 483.473 87.5845C489.893 87.5845 496.465 89.7245 502.427 94.0044L503.191 94.6158V75.2035L503.038 75.0506C500.44 73.9807 497.535 72.7578 493.561 71.9936ZM559.135 71.3822C554.244 71.3822 549.658 72.9107 545.684 76.1206C542.321 78.872 540.028 82.8461 538.041 87.5845H537.888V72.7578H518.018V157.438H537.888V114.181C537.888 106.844 539.417 100.73 542.78 96.2972C546.143 91.7116 550.422 89.4188 555.619 89.4188C557.454 89.4188 559.288 89.8773 561.581 90.1831C563.721 90.7945 565.249 91.4059 566.319 92.1701L567.083 92.7815V72.9107L566.625 72.7578C565.249 71.8407 562.498 71.3822 559.135 71.3822ZM613.245 70.9236C599.335 70.9236 588.177 75.0506 580.382 83.1518C572.433 91.253 568.612 102.411 568.612 116.474C568.612 129.619 572.586 140.319 580.229 148.114C587.871 155.757 598.265 159.731 611.258 159.731C624.862 159.731 635.714 155.604 643.51 147.35C651.458 139.096 655.279 128.09 655.279 114.487C655.279 101.036 651.611 90.3359 644.121 82.5404C636.937 74.7449 626.39 70.9236 613.245 70.9236ZM629.142 136.039C625.473 140.777 619.665 143.07 612.481 143.07C605.297 143.07 599.488 140.777 595.361 135.733C591.234 130.995 589.247 124.116 589.247 115.404C589.247 106.385 591.387 99.5071 595.361 94.6158C599.488 89.7245 605.144 87.2788 612.328 87.2788C619.359 87.2788 624.862 89.5716 628.836 94.3101C632.81 99.0485 634.95 105.927 634.95 114.945C634.644 124.116 632.963 131.3 629.142 136.039ZM699.607 107.914C693.34 105.315 689.365 103.328 687.531 101.647C686.003 100.118 685.238 97.9785 685.238 95.2272C685.238 92.9344 686.156 90.6416 688.448 89.1131C690.741 87.5845 693.34 86.8203 697.161 86.8203C700.524 86.8203 704.039 87.4317 707.402 88.3488C710.765 89.2659 713.822 90.6416 716.267 92.4758L717.032 93.0873V74.4392L716.573 74.2864C714.28 73.3693 711.223 72.4521 707.555 71.6879C703.886 71.0765 700.524 70.7708 697.772 70.7708C688.295 70.7708 680.5 73.0636 674.386 78.1077C668.272 82.8461 665.368 89.2659 665.368 96.7557C665.368 100.73 665.979 104.245 667.355 107.15C668.73 110.054 670.717 112.805 673.469 115.098C676.22 117.238 680.194 119.684 685.697 121.976C690.283 123.963 693.798 125.492 695.938 126.715C698.078 127.938 699.454 129.313 700.524 130.383C701.288 131.606 701.747 133.135 701.747 135.122C701.747 140.777 697.467 143.529 688.754 143.529C685.391 143.529 681.876 142.917 677.749 141.542C673.622 140.166 669.8 138.179 666.59 135.886L665.826 135.275V154.687L666.285 154.84C669.189 156.215 672.704 157.132 676.984 158.202C681.264 158.967 685.086 159.578 688.448 159.578C698.689 159.578 707.096 157.285 713.058 152.241C719.172 147.35 722.382 141.083 722.382 132.982C722.382 127.326 720.853 122.282 717.49 118.461C713.058 114.792 707.555 110.971 699.607 107.914ZM774.81 70.9236C760.9 70.9236 749.742 75.0506 741.947 83.1518C734.151 91.253 730.177 102.411 730.177 116.474C730.177 129.619 734.151 140.319 741.794 148.114C749.436 155.757 759.83 159.731 772.823 159.731C786.427 159.731 797.279 155.604 805.075 147.35C813.023 139.096 816.845 128.09 816.845 114.487C816.845 101.036 813.176 90.3359 805.686 82.5404C798.502 74.7449 787.955 70.9236 774.81 70.9236ZM790.554 136.039C786.885 140.777 781.077 143.07 773.893 143.07C766.556 143.07 760.9 140.777 756.773 135.733C752.646 130.995 750.659 124.116 750.659 115.404C750.659 106.385 752.799 99.5071 756.773 94.6158C760.9 89.7245 766.556 87.2788 773.74 87.2788C780.618 87.2788 786.274 89.5716 790.248 94.3101C794.222 99.0485 796.362 105.927 796.362 114.945C796.362 124.116 794.375 131.3 790.554 136.039ZM923.077 89.1131V72.7578H903.053V47.69L902.442 47.8429L883.488 53.4984L883.03 53.6513V72.7578H853.071V62.0582C853.071 57.1669 854.293 53.3456 856.433 50.8999C858.573 48.4543 861.783 47.2315 865.757 47.2315C868.509 47.2315 871.413 47.8429 874.623 49.2186L875.387 49.6771V32.4048L874.929 32.2519C872.177 31.3348 868.509 30.7234 863.77 30.7234C857.809 30.7234 852.612 32.0991 847.874 34.3919C843.135 36.9903 839.62 40.506 837.021 45.2444C834.423 49.83 833.047 55.027 833.047 60.9882V72.7578H819.137V88.9602H833.047V157.438H853.071V89.1131H883.03V132.676C883.03 150.56 891.437 159.578 908.25 159.578C911.002 159.578 913.906 159.12 916.657 158.661C919.561 158.05 921.701 157.285 922.924 156.674L923.077 156.521V140.166L922.313 140.777C921.09 141.542 920.02 142.153 918.186 142.611C916.657 143.07 915.282 143.223 914.212 143.223C910.237 143.223 907.486 142.306 905.499 140.013C903.665 137.873 902.748 134.357 902.748 129.16V89.1131H923.077Z" fill="#737373"/>
<path d="M0 0H93.6986V93.6986H0V0Z" fill="#F25022"/>
<path d="M103.481 0H197.18V93.6986H103.481V0Z" fill="#7FBA00"/>
<path d="M0 103.481H93.6986V197.18H0V103.481Z" fill="#00A4EF"/>
<path d="M103.481 103.481H197.18V197.18H103.481V103.481Z" fill="#FFB900"/>
</svg>
