<svg width="924" height="308" viewBox="0 0 924 308" fill="none" xmlns="http://www.w3.org/2000/svg">
<path d="M906.827 218.168H842.021V137.364H825.82V218.168H761.014V16.2013H825.82V72.7281H874.424L906.827 105.05V218.168ZM744.894 137.364H680.088V153.565H744.894V218.209H647.733L615.33 185.887V105.05L647.733 72.7281H744.893L744.894 137.364ZM599.153 137.364H542.448V153.566H599.153V218.209H510.094L477.691 185.888V16.2013H542.497V72.7281H599.202L599.153 137.364ZM461.514 56.5673H396.708V16.2013H461.514V56.5673ZM461.514 218.168H396.708V72.7285H461.514V218.168ZM380.507 218.169H186.227L153.824 185.847V72.7281H218.63V153.525H234.832V72.7281H299.638V153.525H315.839V72.7281H380.645L380.507 218.169ZM137.647 137.364H81.007V153.565H137.712V218.209H48.6041L16.2013 185.887V16.2013H81.007V72.7281H137.712L137.647 137.364ZM882.541 56.5673H842.037V0H753.165L712.28 56.5673H639.641L615.339 80.8047V56.5673H558.634V0H380.547V56.5673H129.952L89.108 0H0V193.931L113.353 307.017H226.707V274.696L259.11 307.017H477.707V274.696L510.11 307.017H615.347V274.696L647.75 307.017H850.171L923.077 234.289V96.9655L882.541 56.5673Z" fill="#9147FE"/>
<path d="M761.087 218.168H825.86V137.364H842.054V218.168H906.827V105.05L874.44 72.7281H825.86V16.1692H761.087V218.168ZM477.707 185.846L510.086 218.168H599.153V153.524H542.481V137.364H599.153V72.7281H542.481V16.1692H477.708L477.707 185.846ZM615.347 185.847L647.734 218.169H744.894V153.524H680.12V137.364H744.893V72.7281H647.734L615.347 105.05V185.847ZM396.741 16.1692H461.514V56.5673H396.741V16.1692ZM137.647 72.7281H80.9666V16.1692H16.1936V185.847L48.5801 218.169H137.647V153.524H80.9666V137.364H137.647L137.647 72.7281ZM153.841 185.847L186.219 218.169H380.548V72.7281H315.774V153.525H299.572V72.7281H234.807V153.525H218.614V72.7281H153.841V185.847ZM396.741 72.7281H461.514V218.169H396.741V72.7281Z" fill="white"/>
</svg>
