<svg width="924" height="206" viewBox="0 0 924 206" fill="none" xmlns="http://www.w3.org/2000/svg">
<path d="M288.068 32.2229C284.676 19.6245 274.743 9.6911 262.144 6.29921C239.128 0 147.062 0 147.062 0C147.062 0 54.997 0 31.9806 6.05694C19.6245 9.44882 9.44882 19.6245 6.05694 32.2229C0 55.2392 0 102.968 0 102.968C0 102.968 0 150.939 6.05694 173.713C9.44882 186.311 19.3822 196.245 31.9806 199.637C55.2392 205.936 147.062 205.936 147.062 205.936C147.062 205.936 239.128 205.936 262.144 199.879C274.743 196.487 284.676 186.554 288.068 173.955C294.125 150.939 294.125 103.21 294.125 103.21C294.125 103.21 294.367 55.2392 288.068 32.2229Z" fill="#FF0000"/>
<path d="M117.747 58.8734V147.062L194.306 102.968L117.747 58.8734Z" fill="white"/>
<path d="M427.135 187.523C421.32 183.646 417.202 177.589 414.779 169.11C412.356 160.872 411.145 149.727 411.145 136.16V117.505C411.145 103.695 412.598 92.55 415.263 84.0703C418.171 75.5906 422.532 69.5336 428.346 65.6572C434.403 61.7807 442.156 59.8425 451.847 59.8425C461.296 59.8425 469.049 61.7807 474.864 65.6572C480.678 69.5336 484.797 75.8328 487.462 84.0703C490.127 92.3077 491.581 103.452 491.581 117.505V136.16C491.581 149.97 490.37 160.872 487.704 169.352C485.039 177.589 480.921 183.889 475.106 187.765C469.291 191.641 461.296 193.58 451.363 193.58C441.187 193.337 432.95 191.399 427.135 187.523ZM459.843 167.171C461.538 163.053 462.265 156.027 462.265 146.578V106.36C462.265 97.1533 461.538 90.3695 459.843 86.0085C458.147 81.6475 455.482 79.7093 451.363 79.7093C447.486 79.7093 444.579 81.8898 443.125 86.0085C441.429 90.3695 440.703 97.1533 440.703 106.36V146.578C440.703 156.027 441.429 163.053 443.125 167.171C444.579 171.29 447.486 173.471 451.605 173.471C455.482 173.471 458.147 171.532 459.843 167.171Z" fill="#282828"/>
<path d="M874.379 136.402V142.944C874.379 151.181 874.621 157.48 875.106 161.599C875.591 165.718 876.56 168.867 878.256 170.563C879.709 172.501 882.132 173.471 885.524 173.471C889.885 173.471 892.792 171.775 894.488 168.383C896.184 164.991 896.911 159.418 897.153 151.423L922.108 152.877C922.35 154.088 922.35 155.542 922.35 157.48C922.35 169.352 919.2 178.316 912.659 184.131C906.117 189.945 896.911 192.853 885.039 192.853C870.745 192.853 860.812 188.249 854.997 179.285C849.182 170.321 846.275 156.511 846.275 137.614V115.082C846.275 95.6995 849.182 81.6474 855.239 72.6832C861.296 63.7189 871.472 59.3579 885.766 59.3579C895.7 59.3579 903.452 61.2961 908.783 64.9303C914.113 68.5644 917.747 74.3791 919.927 81.8897C922.108 89.6426 923.077 100.303 923.077 113.87V135.918H874.379V136.402ZM878.013 82.132C876.56 84.0702 875.591 86.9775 875.106 91.0962C874.621 95.215 874.379 101.514 874.379 109.994V119.2H895.7V109.994C895.7 101.756 895.457 95.4572 894.973 91.0962C894.488 86.7353 893.277 83.8279 891.823 82.132C890.369 80.436 887.947 79.4669 885.039 79.4669C881.647 79.2247 879.467 80.1938 878.013 82.132Z" fill="#282828"/>
<path d="M356.39 133.979L323.44 14.5366H352.271L363.901 68.5645C366.808 81.8897 368.988 93.2768 370.442 102.726H371.169C372.138 95.9418 374.319 84.7971 377.71 68.8068L389.824 14.5366H418.655L385.221 133.979V191.157H356.632V133.979H356.39Z" fill="#282828"/>
<path d="M585.342 62.2653V191.399H562.568L560.145 175.651H559.418C553.362 187.523 543.913 193.58 531.557 193.58C523.077 193.58 516.778 190.672 512.659 185.1C508.54 179.528 506.602 170.806 506.602 158.692V62.2653H535.675V156.996C535.675 162.81 536.402 166.929 537.614 169.352C538.825 171.775 541.005 172.986 543.913 172.986C546.336 172.986 548.758 172.259 551.181 170.563C553.604 169.11 555.3 167.171 556.269 164.749V62.2653H585.342Z" fill="#282828"/>
<path d="M734.343 62.2653V191.399H711.569L709.146 175.651H708.419C702.362 187.523 692.913 193.58 680.557 193.58C672.077 193.58 665.778 190.672 661.66 185.1C657.541 179.528 655.603 170.806 655.603 158.692V62.2653H684.676V156.996C684.676 162.81 685.403 166.929 686.614 169.352C687.826 171.775 690.006 172.986 692.913 172.986C695.336 172.986 697.759 172.259 700.182 170.563C702.604 169.11 704.3 167.171 705.27 164.749V62.2653H734.343Z" fill="#282828"/>
<path d="M664.325 38.0375H635.494V191.157H607.147V38.0375H578.316V14.5366H664.325V38.0375Z" fill="#282828"/>
<path d="M830.527 82.8588C828.831 74.6214 825.924 68.8067 822.047 65.1726C818.171 61.5384 812.598 59.6002 805.815 59.6002C800.485 59.6002 795.397 61.0539 790.793 64.2035C786.19 67.1108 782.556 71.2295 780.133 76.0751H779.891V7.99512H751.787V191.157H775.772L778.68 179.043H779.406C781.587 183.404 784.979 186.796 789.582 189.461C794.185 191.884 799.031 193.337 804.603 193.337C814.537 193.337 821.563 188.734 826.166 179.77C830.769 170.806 833.192 156.511 833.192 137.371V117.02C832.95 102.241 832.223 90.854 830.527 82.8588ZM803.876 135.433C803.876 144.882 803.392 152.15 802.665 157.48C801.938 162.81 800.485 166.687 798.789 168.867C796.85 171.048 794.428 172.259 791.52 172.259C789.098 172.259 786.917 171.775 784.979 170.563C783.041 169.352 781.345 167.656 780.133 165.475V92.3077C781.102 88.9158 782.798 86.0084 785.221 83.5857C787.644 81.4052 790.309 80.1938 792.974 80.1938C795.881 80.1938 798.304 81.4052 799.758 83.5857C801.454 86.0084 802.423 89.8849 803.15 95.215C803.876 100.787 804.119 108.54 804.119 118.474V135.433H803.876Z" fill="#282828"/>
</svg>
